<svg width="25" height="25" viewBox="0 0 25 25" fill="none" xmlns="http://www.w3.org/2000/svg">
<g clip-path="url(#clip0_11_2372)">
<path d="M22.5 4.5H20.5M20.5 6.5H18.5M18.5 4.5H16.5M18.5 8.5H16.5M22.5 8.5H20.5M14.5 4.5H12.5M12.5 6.5H10.5M10.5 4.5H8.5M10.5 8.5H8.5M14.5 8.5H12.5M16.5 6.5H14.5M8.5 6.5H6.5M22.5 12.5H20.5M20.5 14.5H18.5M18.5 12.5H16.5M18.5 16.5H16.5M22.5 16.5H20.5M14.5 12.5H12.5M12.5 14.5H10.5M10.5 12.5H8.5M10.5 16.5H8.5M14.5 16.5H12.5M16.5 14.5H14.5M8.5 14.5H6.5M20.5 10.5H18.5M16.5 10.5H14.5M12.5 10.5H10.5M8.5 10.5H6.5M6.5 4.5H4.5M6.5 8.5H4.5M6.5 12.5H4.5M6.5 16.5H4.5M3.5 2.5V24.5" stroke="#080707" stroke-width="2"/>
</g>
<defs>
<clipPath id="clip0_11_2372">
<rect width="24" height="24" fill="white" transform="translate(0.5 0.5)"/>
</clipPath>
</defs>
</svg>
