<svg width="20" height="21" viewBox="0 0 20 21" fill="none" xmlns="http://www.w3.org/2000/svg">
<g clip-path="url(#clip0_11_2146)">
<path d="M9.1515 5.5414L9.28557 5.8647L9.29987 5.85877L9.31359 5.8516L9.1515 5.5414ZM5.45035 7.07632L5.58442 7.39963L5.58442 7.39963L5.45035 7.07632ZM4.83343 7.33217L4.69935 7.00887L4.48343 7.09842V7.33217H4.83343ZM4.83343 11.3334H4.48343V11.6834H4.83343V11.3334ZM6.83343 11.3334V11.6834H7.18343V11.3334H6.83343ZM6.83343 8.66791L6.69935 8.34461L6.48343 8.43416V8.66791H6.83343ZM7.92341 8.21588L8.26674 8.28388L8.39391 7.64185L7.78933 7.89258L7.92341 8.21588ZM6.70762 14.3542L6.65008 14.6994L6.98499 14.7552L7.05095 14.4222L6.70762 14.3542ZM2.66449 13.6803L2.72203 13.3351L2.37679 13.2775L2.31925 13.6228L2.66449 13.6803ZM2.33569 15.6531L1.99046 15.5956L1.93292 15.9408L2.27815 15.9983L2.33569 15.6531ZM7.33569 16.4864L7.27815 16.8317L7.27815 16.8317L7.33569 16.4864ZM8.29256 16.6459L8.23502 16.9911L8.56992 17.047L8.63589 16.7139L8.29256 16.6459ZM8.48104 15.6943L8.13771 15.6263L8.13771 15.6263L8.48104 15.6943ZM8.92657 13.4449L9.13657 13.1649L8.69137 12.831L8.58324 13.3769L8.92657 13.4449ZM10.6668 14.75H11.0168V14.575L10.8768 14.47L10.6668 14.75ZM10.6668 19.6667H10.3168V20.0167H10.6668V19.6667ZM12.6668 19.6667V20.0167H13.0168V19.6667H12.6668ZM12.6668 13.4192H13.0168V13.2742L12.9142 13.1717L12.6668 13.4192ZM12.3739 13.1263L12.6214 12.8788L12.6214 12.8788L12.3739 13.1263ZM11.0721 11.8245L10.727 11.7662L10.6969 11.9443L10.8246 12.072L11.0721 11.8245ZM11.4397 9.64851L11.6875 9.40136L11.2078 8.92031L11.0946 9.5902L11.4397 9.64851ZM15.8334 11.5V11.85H16.1834V11.5H15.8334ZM15.8334 9.50004H16.1834V9.15004H15.8334V9.50004ZM11.7375 6.58086L11.4059 6.69267L11.4086 6.70077L11.4117 6.70872L11.7375 6.58086ZM11.6825 6.4377L12.0036 6.29847L12.0036 6.29847L11.6825 6.4377ZM12.5668 3.41667C12.5668 4.14384 11.9773 4.73333 11.2501 4.73333V5.43333C12.3639 5.43333 13.2668 4.53044 13.2668 3.41667H12.5668ZM11.2501 2.1C11.9773 2.1 12.5668 2.68949 12.5668 3.41667H13.2668C13.2668 2.30289 12.3639 1.4 11.2501 1.4V2.1ZM9.93347 3.41667C9.93347 2.68949 10.523 2.1 11.2501 2.1V1.4C10.1364 1.4 9.23347 2.30289 9.23347 3.41667H9.93347ZM11.2501 4.73333C10.523 4.73333 9.93347 4.14384 9.93347 3.41667H9.23347C9.23347 4.53044 10.1364 5.43333 11.2501 5.43333V4.73333ZM9.31359 5.8516C9.51942 5.74405 9.75347 5.68337 10.0001 5.68337V4.98337C9.63774 4.98337 9.29275 5.07268 8.9894 5.2312L9.31359 5.8516ZM5.58442 7.39963L9.28557 5.8647L9.01742 5.2181L5.31627 6.75302L5.58442 7.39963ZM4.9675 7.65547L5.58442 7.39963L5.31627 6.75302L4.69935 7.00887L4.9675 7.65547ZM5.18343 8.00004V7.33217H4.48343V8.00004H5.18343ZM5.18343 11.3334V8.00004H4.48343V11.3334H5.18343ZM6.83343 10.9834H4.83343V11.6834H6.83343V10.9834ZM6.48343 8.66791V11.3334H7.18343V8.66791H6.48343ZM7.78933 7.89258L6.69935 8.34461L6.9675 8.99121L8.05749 8.53918L7.78933 7.89258ZM7.05095 14.4222L8.26674 8.28388L7.58008 8.14787L6.36429 14.2862L7.05095 14.4222ZM2.60695 14.0256L6.65008 14.6994L6.76516 14.0089L2.72203 13.3351L2.60695 14.0256ZM2.68093 15.7106L3.00973 13.7379L2.31925 13.6228L1.99046 15.5956L2.68093 15.7106ZM7.39323 16.1412L2.39323 15.3079L2.27815 15.9983L7.27815 16.8317L7.39323 16.1412ZM8.3501 16.3007L7.39323 16.1412L7.27815 16.8317L8.23502 16.9911L8.3501 16.3007ZM8.13771 15.6263L7.94923 16.5779L8.63589 16.7139L8.82437 15.7623L8.13771 15.6263ZM8.58324 13.3769L8.13771 15.6263L8.82437 15.7623L9.2699 13.5129L8.58324 13.3769ZM10.8768 14.47L9.13657 13.1649L8.71657 13.7249L10.4568 15.03L10.8768 14.47ZM11.0168 19.6667V14.75H10.3168V19.6667H11.0168ZM12.6668 19.3167H10.6668V20.0167H12.6668V19.3167ZM12.3168 14.25V19.6667H13.0168V14.25H12.3168ZM12.3168 13.8334V14.25H13.0168V13.8334H12.3168ZM12.3168 13.4192V13.8334H13.0168V13.4192H12.3168ZM12.1264 13.3738L12.4193 13.6666L12.9142 13.1717L12.6214 12.8788L12.1264 13.3738ZM10.8246 12.072L12.1264 13.3738L12.6214 12.8788L11.3196 11.577L10.8246 12.072ZM11.0946 9.5902L10.727 11.7662L11.4172 11.8828L11.7848 9.70682L11.0946 9.5902ZM15.8334 11.15C13.9993 11.15 12.6368 10.3532 11.6875 9.40136L11.1919 9.89566C12.2428 10.9494 13.7752 11.85 15.8334 11.85V11.15ZM15.4834 9.50004V11.5H16.1834V9.50004H15.4834ZM11.4117 6.70872C11.8508 7.82742 13.299 9.85004 15.8334 9.85004V9.15004C13.7121 9.15004 12.4519 7.44311 12.0633 6.453L11.4117 6.70872ZM11.3614 6.57693C11.3778 6.61476 11.3926 6.65337 11.4059 6.69267L12.0692 6.46906C12.0497 6.41112 12.0278 6.35422 12.0036 6.29847L11.3614 6.57693ZM10.0001 5.68337C10.6104 5.68337 11.1338 6.052 11.3614 6.57693L12.0036 6.29847C11.6693 5.52754 10.9 4.98337 10.0001 4.98337V5.68337Z" fill="#00F15E"/>
</g>
<defs>
<clipPath id="clip0_11_2146">
<rect width="20" height="20" fill="white" transform="translate(0 0.5)"/>
</clipPath>
</defs>
</svg>
